<?xml version="1.0" standalone="no"?>
<!DOCTYPE svg PUBLIC "-//W3C//DTD SVG 20010904//EN"
 "http://www.w3.org/TR/2001/REC-SVG-20010904/DTD/svg10.dtd">
<svg version="1.0" xmlns="http://www.w3.org/2000/svg"
 width="816.000000pt" height="816.000000pt" viewBox="0 0 816.000000 816.000000"
 preserveAspectRatio="xMidYMid meet">
<metadata>
Created by potrace 1.14, written by Peter Selinger 2001-2017
</metadata>
<g transform="translate(0.000000,816.000000) scale(0.100000,-0.100000)"
fill="#000000" stroke="none">
<path d="M5247 8134 c-1 -1 -58 -4 -127 -8 -69 -3 -141 -8 -160 -10 -19 -3
-62 -7 -95 -11 -95 -9 -145 -16 -215 -26 -36 -6 -81 -12 -100 -15 -19 -2 -46
-6 -60 -9 -14 -2 -38 -7 -55 -10 -28 -4 -41 -7 -105 -20 -14 -2 -37 -7 -52 -9
-15 -3 -63 -12 -105 -20 -43 -9 -87 -18 -98 -20 -11 -2 -108 -25 -215 -51
-107 -25 -202 -48 -210 -50 -257 -59 -867 -238 -1110 -326 -112 -41 -289 -113
-370 -151 -36 -16 -88 -41 -117 -54 -88 -41 -287 -150 -408 -224 -153 -93
-501 -340 -535 -379 -3 -3 -32 -28 -65 -55 -82 -68 -348 -336 -417 -421 -183
-228 -317 -497 -346 -695 -30 -214 37 -422 180 -556 138 -129 148 -90 68 251
-28 123 -41 214 -44 317 -4 112 12 181 59 261 19 32 35 60 35 63 0 11 139 217
197 291 302 388 762 740 1338 1022 261 128 247 122 450 204 313 126 791 275
1095 342 78 18 475 95 510 100 25 3 74 11 110 16 36 6 83 12 105 14 22 3 51 7
65 9 14 3 54 8 90 11 36 3 76 7 90 10 14 2 63 7 110 10 47 3 110 8 140 11 78
7 448 7 550 -1 74 -5 168 -16 275 -31 91 -13 252 -70 283 -101 7 -7 17 -13 20
-13 4 0 29 -21 55 -46 120 -115 147 -228 96 -399 -41 -137 -121 -271 -284
-475 -148 -185 -294 -331 -386 -387 -44 -26 -88 -53 -97 -58 -345 -211 -689
-526 -803 -733 -18 -33 -83 -91 -269 -241 -269 -217 -530 -419 -715 -555 -66
-49 -136 -101 -155 -116 -223 -173 -1196 -840 -1510 -1035 -52 -32 -124 -77
-160 -100 -36 -23 -81 -50 -100 -61 -19 -10 -37 -22 -40 -25 -3 -3 -25 -17
-50 -30 -25 -14 -63 -36 -85 -48 -110 -62 -148 -83 -237 -129 -54 -27 -98 -48
-98 -46 0 2 25 45 57 96 51 85 363 599 420 693 13 22 26 48 30 58 3 9 9 17 14
17 5 0 9 4 9 9 0 5 24 49 54 97 29 49 217 364 416 699 373 628 731 1221 875
1450 44 72 84 137 88 145 4 8 42 69 86 135 137 207 170 264 191 325 11 33 20
66 20 75 0 24 -37 54 -61 50 -48 -9 -129 -92 -224 -230 -46 -67 -315 -511
-315 -521 0 -2 -10 -21 -23 -42 -13 -20 -37 -62 -54 -92 -54 -98 -264 -464
-288 -500 -12 -19 -43 -71 -69 -115 -39 -66 -149 -224 -199 -285 -63 -76 -395
-558 -424 -613 -8 -18 -19 -34 -23 -37 -33 -22 -130 -286 -114 -311 5 -9 -147
-312 -185 -367 -10 -15 -35 -56 -56 -92 -47 -81 -255 -400 -272 -418 -7 -8
-18 -22 -24 -33 -14 -26 -151 -215 -260 -360 -96 -125 -149 -225 -149 -277 0
-23 -24 -76 -77 -170 -133 -238 -289 -582 -321 -707 -21 -79 -23 -133 -8 -170
8 -19 21 -35 28 -36 7 0 21 -2 31 -4 26 -5 98 28 124 56 34 37 49 84 68 204
22 142 47 218 140 410 41 87 75 159 75 162 0 2 18 35 39 72 93 159 135 174
551 196 58 3 128 8 155 10 134 12 182 17 205 21 14 2 54 6 90 10 36 3 73 8 84
10 10 2 44 6 75 10 31 3 65 8 76 10 49 9 233 18 380 18 197 0 378 -11 528 -34
37 -6 84 -12 105 -15 20 -3 48 -7 62 -10 14 -3 41 -8 60 -11 32 -5 311 -61
595 -120 169 -36 285 -52 363 -52 91 1 298 57 316 86 17 27 -70 59 -209 77
-92 11 -119 17 -310 60 -163 37 -240 54 -375 80 -23 5 -209 38 -275 49 -51 8
-237 35 -290 40 -27 3 -68 8 -90 11 -22 2 -80 7 -130 10 -49 4 -112 9 -140 11
-69 5 -449 5 -510 -1 -27 -2 -79 -7 -115 -10 -36 -3 -74 -7 -85 -9 -18 -3 -51
-8 -147 -22 -44 -6 -76 -11 -179 -28 -189 -31 -258 -36 -331 -25 -28 5 -53 10
-55 13 -12 12 33 68 75 93 48 28 210 127 272 168 19 13 107 69 195 125 570
365 1199 790 1709 1154 132 94 256 182 275 196 68 47 583 431 591 440 3 3 55
44 117 92 l111 87 12 -29 c28 -67 109 -115 193 -115 50 1 62 4 78 24 25 31 24
41 -12 117 -24 50 -32 80 -33 126 -1 68 -10 58 179 213 53 44 115 96 138 116
238 206 368 323 533 482 81 78 119 106 183 138 45 21 83 39 85 39 3 0 33 13
68 29 218 100 601 215 791 237 29 4 74 10 101 14 81 12 295 9 380 -6 392 -68
557 -319 497 -752 -22 -157 -107 -423 -196 -617 -38 -83 -167 -341 -195 -390
-68 -121 -147 -255 -201 -342 -135 -217 -166 -256 -236 -310 -61 -46 -401
-271 -600 -397 -95 -61 -737 -488 -848 -564 -82 -58 -146 -102 -275 -194 -77
-55 -500 -371 -535 -400 -11 -9 -83 -67 -160 -129 -125 -100 -312 -255 -325
-269 -3 -3 -34 -30 -70 -60 -36 -30 -70 -59 -76 -65 -72 -65 -201 -182 -253
-230 -76 -68 -506 -498 -566 -565 -326 -362 -653 -797 -763 -1015 -120 -239
-112 -432 20 -501 44 -23 224 -19 300 7 201 68 527 260 808 477 86 67 257 205
304 247 6 6 43 37 81 70 39 33 90 78 115 102 25 23 56 51 70 63 180 155 838
813 1092 1091 54 60 195 213 218 238 32 36 147 165 191 216 19 21 41 46 49 55
8 9 40 45 70 80 30 35 60 68 65 74 6 6 33 38 60 71 28 32 57 66 65 75 15 16
50 57 118 139 21 24 47 55 60 70 13 14 58 68 100 120 42 51 113 137 157 190
44 53 94 114 110 136 17 21 51 63 76 94 25 31 81 103 125 161 43 57 89 116
102 130 12 14 22 28 22 31 0 3 9 17 21 30 11 13 45 58 74 99 134 189 313 322
568 421 148 57 209 103 193 144 -5 13 -14 15 -44 11 -56 -9 -58 -9 -179 -49
-62 -20 -124 -37 -137 -37 -59 0 -56 6 192 450 41 74 206 402 224 445 59 142
105 288 138 435 10 47 22 99 26 115 4 17 8 120 10 230 3 174 1 209 -16 270
-93 332 -352 496 -785 497 -82 1 -172 -2 -200 -6 -27 -4 -63 -9 -80 -12 -183
-23 -443 -95 -685 -188 -63 -24 -116 -43 -118 -41 -2 1 29 43 68 91 204 254
331 503 346 682 21 243 -180 453 -513 538 -51 13 -115 26 -141 29 -26 4 -54 8
-62 10 -44 11 -452 28 -463 19z m1410 -4116 c-4 -14 -15 -35 -27 -49 -26 -31
-25 -30 -94 -124 -33 -44 -82 -109 -111 -145 -28 -36 -123 -155 -210 -265 -88
-110 -164 -204 -170 -210 -6 -5 -31 -35 -56 -65 -24 -30 -46 -57 -49 -60 -3
-3 -41 -48 -85 -100 -44 -52 -84 -100 -90 -106 -5 -6 -23 -27 -40 -45 -140
-160 -171 -195 -180 -205 -5 -6 -46 -50 -90 -99 -113 -124 -121 -133 -278
-300 -179 -191 -665 -676 -821 -820 -65 -61 -131 -121 -146 -135 -51 -48 -186
-167 -265 -236 -44 -37 -82 -71 -85 -74 -3 -3 -62 -53 -131 -110 -463 -385
-842 -637 -1032 -687 -67 -18 -105 -14 -133 14 -24 24 -14 112 25 203 82 196
349 592 568 840 12 14 32 37 45 52 13 14 55 63 93 107 82 93 499 509 629 626
120 108 139 125 325 285 136 117 541 445 682 551 464 350 644 481 914 668 378
263 797 533 808 522 5 -5 7 -20 4 -33z"/>
</g>
</svg>
