<svg width="1073" height="327" viewBox="0 0 1073 327" fill="none" xmlns="http://www.w3.org/2000/svg">
<g clip-path="url(#clip0_2_20)">
<path d="M733.599 198.482C714.644 203.968 696.792 216.341 687.348 233.972C685.725 228.697 684.403 223.334 683.39 217.909C682.911 215.38 682.107 211.975 680.719 208.968C686.526 202.376 693.225 196.629 700.622 191.894C712.078 192.201 723.284 194.334 733.596 198.482H733.599ZM780.746 296.399C776.499 298.282 772.693 301.032 769.572 304.474C762.382 303.461 755.302 301.778 748.425 299.445C757.998 283.437 772.358 277.214 783.085 274.831C783.058 282.082 782.274 289.31 780.746 296.397V296.399ZM781.515 257.497C762.129 261.611 744.45 276.606 734.568 293.502C728.687 290.432 723.162 286.722 718.092 282.441C730.633 261.639 751.74 244.278 775.56 238.531C778.296 244.592 780.296 250.959 781.517 257.497H781.515ZM767.588 224.82C740.695 229.13 718.092 246.132 706.712 270.899C701.91 265.027 697.793 258.625 694.442 251.819C707.332 230.785 727.545 215.266 751.187 208.252C757.058 212.586 762.271 217.748 766.664 223.577C766.978 223.991 767.284 224.408 767.588 224.827V224.82Z" fill="#EDA73E"/>
<path d="M678.986 218.747C689.433 273.919 725.126 307.031 781.596 310.149C803.293 245.849 764.354 184.308 692.587 187.498C680.415 188.039 675.276 183.97 681.08 177.586C691.084 166.571 712.281 163.959 726.119 161.71C763.859 155.575 795.974 146.332 818.132 112.522C867.912 36.5728 725.538 -37.8874 694.061 88.9596C685.965 121.596 681.202 178.309 644.815 192.871C620.219 202.713 590.078 189.229 587.981 156.772C586.459 133.19 602.889 111.634 630.661 111.993C621.351 99.8598 607.604 90.7387 586.146 87.4486C576.685 85.9974 579.416 81.0717 585.701 80.2647C615.442 76.4693 646.533 98.9522 658.308 126.83C662.774 137.39 650.082 144.378 643.005 134.493C632.889 120.353 604.15 131.619 604.198 153.959C604.246 176.049 625.233 186.803 641.73 176.731C666.493 161.6 671.593 110.844 678.005 85.0085C704.86 -23.618 801.632 -14.2216 835.806 36.0508C851.362 58.9456 850.884 84.927 840.858 107.788C823.064 148.41 780.502 174.567 736.834 176.722C801.058 198.256 818.761 269.711 792.811 327.012C726.627 325.726 679.007 296.452 666.057 229.164C662.357 209.923 674.475 194.921 678.981 218.74L678.986 218.747Z" fill="white"/>
</g>
<path d="M110.237 201.026C110.391 206.443 109.522 211.094 107.631 214.978C105.74 218.862 103.159 222.133 99.8882 224.791C96.6685 227.397 92.8866 229.492 88.5425 231.077C84.2495 232.712 79.7266 233.939 74.9736 234.756C70.2718 235.625 65.5189 236.187 60.7148 236.443C55.9108 236.698 51.4134 236.826 47.2227 236.826C42.9808 236.826 38.2534 236.698 33.0405 236.443C27.8787 236.238 22.2059 235.881 16.022 235.37L12.7256 123.752C18.0407 122.781 23.2025 122.066 28.2109 121.606C33.2194 121.095 37.6912 120.737 41.6265 120.533C46.2261 120.328 50.5701 120.252 54.6587 120.303C58.5428 120.405 62.4525 120.635 66.3877 120.993C70.3229 121.35 74.0793 121.964 77.6567 122.833C81.2853 123.65 84.6584 124.8 87.7759 126.282C90.8934 127.764 93.6021 129.655 95.9019 131.955C98.2017 134.255 100.016 137.04 101.345 140.311C102.674 143.531 103.338 147.338 103.338 151.733C103.338 157.457 102.29 162.364 100.195 166.452C98.0994 170.49 95.3652 173.837 91.9922 176.495C94.1387 177.21 96.0552 178.104 97.7417 179.178C99.4282 180.2 100.885 181.35 102.111 182.627C103.389 183.905 104.462 185.259 105.331 186.69C106.251 188.07 107.018 189.45 107.631 190.83C109.011 193.999 109.88 197.397 110.237 201.026ZM54.9653 134.255C52.5633 134.255 49.9569 134.332 47.146 134.485C44.744 134.587 41.9842 134.792 38.8667 135.098C35.8003 135.405 32.5295 135.814 29.0542 136.325L30.2808 175.421C34.6759 175.319 38.6623 175.191 42.2397 175.038C45.8683 174.834 48.9858 174.655 51.5923 174.501C54.6587 174.297 57.3929 174.093 59.7949 173.888C63.5768 173.684 67.1799 173.07 70.604 172.048C74.0793 170.975 77.0946 169.519 79.6499 167.679C82.2052 165.839 84.1729 163.59 85.5527 160.933C86.9837 158.275 87.5203 155.209 87.1626 151.733C86.856 149.178 86.1405 146.955 85.0161 145.064C83.9429 143.122 82.563 141.486 80.8765 140.158C79.241 138.778 77.3501 137.679 75.2036 136.861C73.1082 135.993 70.9106 135.354 68.6108 134.945C66.3621 134.485 64.0623 134.229 61.7114 134.178C59.3605 134.076 57.1118 134.102 54.9653 134.255ZM69.5308 186.23C68.2531 186.333 67.1287 186.435 66.1577 186.537C65.2378 186.588 64.4201 186.639 63.7046 186.69C63.0402 186.742 62.4269 186.793 61.8647 186.844C61.3537 186.895 60.8682 186.92 60.4082 186.92C57.5973 187.176 54.582 187.406 51.3623 187.61C48.6025 187.815 45.4339 188.045 41.8564 188.3C38.279 188.505 34.5737 188.709 30.7407 188.914L31.8906 222.874C33.3216 222.976 34.7271 223.027 36.1069 223.027C37.4868 223.027 38.8411 223.027 40.1699 223.027C42.5719 223.027 45.5872 223.027 49.2158 223.027C52.8955 222.976 56.7285 222.797 60.7148 222.491C64.7523 222.133 68.7642 221.545 72.7505 220.728C76.7879 219.859 80.391 218.632 83.5596 217.048C86.7793 215.412 89.3346 213.317 91.2256 210.762C93.1676 208.206 94.062 205.012 93.9087 201.179C93.4487 198.419 92.2733 195.941 90.3823 193.743C89.5646 192.823 88.5425 191.903 87.3159 190.983C86.1405 190.063 84.7095 189.271 83.0229 188.607C81.3364 187.891 79.3688 187.329 77.1201 186.92C74.9225 186.46 72.3927 186.23 69.5308 186.23ZM186.361 236.52L186.054 214.518C184.368 217.533 182.451 220.395 180.305 223.104C178.158 225.762 175.833 228.112 173.329 230.157C170.824 232.15 168.141 233.734 165.279 234.91C162.468 236.085 159.504 236.622 156.387 236.52C151.787 236.366 147.826 235.497 144.504 233.913C141.234 232.329 138.474 230.233 136.225 227.627C133.976 224.969 132.162 221.929 130.782 218.504C129.453 215.029 128.431 211.375 127.716 207.542C127 203.709 126.515 199.799 126.259 195.813C126.055 191.776 125.953 187.866 125.953 184.084C125.953 178.769 126.183 173.403 126.643 167.985C127.103 162.517 127.767 156.946 128.636 151.273L144.351 151.733C143.533 158.071 142.971 163.769 142.665 168.829C142.409 173.888 142.281 178.334 142.281 182.167C142.281 183.905 142.307 186.103 142.358 188.76C142.409 191.418 142.588 194.254 142.895 197.27C143.252 200.234 143.789 203.172 144.504 206.085C145.22 208.999 146.216 211.605 147.494 213.905C148.823 216.153 150.484 217.891 152.477 219.118C154.47 220.344 156.923 220.753 159.836 220.344C163.772 219.782 167.86 217.073 172.102 212.218C176.395 207.363 180.892 199.902 185.594 189.833C185.441 181.708 185.288 175.217 185.134 170.362C185.032 165.507 184.955 161.801 184.904 159.246C184.802 156.231 184.725 154.135 184.674 152.96L201.156 151.12C201.463 159.91 201.718 167.858 201.923 174.961C202.178 182.014 202.408 188.377 202.613 194.05C202.817 199.672 202.971 204.629 203.073 208.922C203.226 213.164 203.354 216.843 203.456 219.961C203.66 227.269 203.788 232.687 203.839 236.213L186.361 236.52ZM241.479 171.665C243.115 169.621 244.827 167.525 246.616 165.379C248.456 163.181 250.423 161.188 252.519 159.399C254.665 157.611 256.965 156.154 259.418 155.03C261.922 153.854 264.682 153.267 267.697 153.267C269.844 153.267 271.914 153.624 273.907 154.34C275.9 155.004 277.714 156.052 279.35 157.483C280.985 158.914 282.365 160.754 283.489 163.002C284.614 165.2 285.329 167.832 285.636 170.898C287.22 168.905 288.881 166.887 290.619 164.842C292.407 162.747 294.324 160.856 296.368 159.169C298.464 157.432 300.712 156.026 303.114 154.953C305.516 153.829 308.174 153.267 311.087 153.267C313.336 153.267 315.533 153.65 317.68 154.417C319.826 155.183 321.717 156.384 323.353 158.02C325.039 159.604 326.419 161.674 327.492 164.229C328.565 166.733 329.153 169.723 329.255 173.198C329.562 176.929 329.843 181.631 330.099 187.304C330.354 192.159 330.559 198.343 330.712 205.855C330.916 213.317 331.019 222.286 331.019 232.763L314.997 233.53C314.997 224.228 314.971 216.281 314.92 209.688C314.869 203.045 314.818 197.551 314.767 193.207C314.664 188.147 314.588 183.956 314.537 180.634C314.383 176.444 313.693 173.326 312.467 171.282C311.291 169.237 309.733 168.215 307.791 168.215C306.513 168.215 305.21 168.599 303.881 169.365C302.603 170.132 301.3 171.128 299.971 172.355C298.694 173.582 297.416 174.987 296.138 176.571C294.912 178.156 293.736 179.765 292.612 181.401C291.487 183.036 290.414 184.621 289.392 186.154C288.37 187.687 287.476 189.041 286.709 190.217C286.811 192.465 286.913 194.944 287.016 197.653C287.118 200.361 287.194 203.428 287.246 206.852C287.348 210.276 287.399 214.109 287.399 218.351C287.45 222.593 287.476 227.397 287.476 232.763L272.604 233.53C272.604 224.228 272.501 216.281 272.297 209.688C272.144 203.045 271.965 197.551 271.76 193.207C271.556 188.147 271.3 183.956 270.994 180.634C270.84 176.444 270.15 173.326 268.924 171.282C267.748 169.237 266.19 168.215 264.248 168.215C262.919 168.215 261.564 168.65 260.185 169.519C258.805 170.387 257.399 171.512 255.968 172.892C254.588 174.271 253.234 175.856 251.905 177.645C250.576 179.382 249.299 181.145 248.072 182.934C246.846 184.723 245.696 186.435 244.623 188.07C243.549 189.706 242.604 191.137 241.786 192.363L242.476 232.763L227.221 233.53L225.151 151.12L241.173 149.357L241.479 171.665ZM369.349 116.086L368.889 161.316C371.853 158.454 374.919 156.256 378.088 154.723C381.308 153.139 384.272 151.989 386.98 151.273C390.149 150.405 393.241 149.919 396.256 149.817C399.732 149.817 403.181 150.328 406.605 151.35C410.03 152.321 413.275 153.727 416.341 155.566C419.408 157.355 422.219 159.527 424.774 162.083C427.38 164.638 429.604 167.5 431.443 170.668C433.334 173.786 434.765 177.159 435.736 180.788C436.707 184.416 437.142 188.224 437.04 192.21C436.886 196.605 436.222 200.745 435.046 204.629C433.871 208.513 432.312 212.09 430.37 215.361C428.479 218.581 426.256 221.494 423.701 224.101C421.145 226.707 418.411 228.905 415.498 230.693C412.636 232.482 409.646 233.836 406.529 234.756C403.411 235.727 400.345 236.213 397.33 236.213C394.212 236.111 390.992 235.625 387.67 234.756C384.808 234.041 381.665 232.891 378.241 231.307C374.817 229.722 371.444 227.474 368.122 224.561V234.603L353.863 234.91L352.56 116.7L369.349 116.086ZM420.558 193.667C420.813 189.833 420.328 186.154 419.101 182.627C417.926 179.05 416.162 175.907 413.812 173.198C411.512 170.49 408.701 168.343 405.379 166.759C402.108 165.174 398.531 164.408 394.646 164.459C391.478 164.51 388.488 165.047 385.677 166.069C382.917 167.091 380.413 168.471 378.165 170.208C375.967 171.946 374.05 173.965 372.415 176.265C370.78 178.564 369.502 181.018 368.582 183.624L368.429 201.946C369.349 205.114 370.652 207.925 372.338 210.378C374.025 212.78 375.967 214.825 378.165 216.511C380.413 218.147 382.815 219.399 385.371 220.268C387.977 221.085 390.609 221.52 393.267 221.571C396.997 221.673 400.473 221.009 403.692 219.578C406.963 218.147 409.8 216.179 412.202 213.675C414.655 211.119 416.597 208.13 418.028 204.706C419.51 201.281 420.353 197.602 420.558 193.667ZM484.416 234.756C480.787 234.705 477.567 234.092 474.756 232.917C471.997 231.741 469.543 230.233 467.397 228.394C465.302 226.503 463.487 224.356 461.954 221.954C460.472 219.552 459.22 217.125 458.198 214.671C455.745 208.845 454.211 202.252 453.598 194.893L455.668 97.688H471.69C471.434 106.785 471.179 115.141 470.923 122.756C470.719 130.32 470.54 137.219 470.387 143.454C470.233 149.638 470.08 155.183 469.927 160.089C469.825 164.996 469.722 169.314 469.62 173.045C469.416 181.835 469.262 188.76 469.16 193.82C469.262 198.573 469.952 202.815 471.23 206.545C471.741 208.13 472.405 209.688 473.223 211.222C474.092 212.755 475.114 214.135 476.29 215.361C477.516 216.588 478.947 217.584 480.583 218.351C482.269 219.067 484.211 219.45 486.409 219.501L484.416 234.756ZM535.011 223.947C537.72 223.947 540.403 223.538 543.061 222.721C545.718 221.852 548.171 220.625 550.42 219.041C552.669 217.406 554.611 215.387 556.246 212.985C557.933 210.583 559.159 207.798 559.926 204.629L574.721 207.619C573.29 212.269 571.271 216.486 568.665 220.268C566.059 224.049 563.018 227.295 559.542 230.003C556.067 232.712 552.234 234.807 548.043 236.29C543.904 237.772 539.56 238.513 535.011 238.513C528.265 238.513 522.286 237.491 517.073 235.446C511.86 233.402 507.465 230.514 503.887 226.784C500.31 223.053 497.576 218.556 495.685 213.292C493.845 208.028 492.925 202.15 492.925 195.66C492.925 189.271 493.998 183.317 496.145 177.798C498.342 172.227 501.332 167.398 505.114 163.309C508.896 159.221 513.342 156.001 518.453 153.65C523.563 151.299 529.083 150.124 535.011 150.124C540.326 150.124 545.335 151.171 550.037 153.267C554.738 155.311 558.904 158.173 562.532 161.853C566.161 165.481 569.151 169.774 571.501 174.731C573.852 179.689 575.334 185.055 575.948 190.83L509.56 200.719C509.918 204.348 510.812 207.619 512.243 210.532C513.674 213.394 515.488 215.821 517.686 217.814C519.935 219.808 522.516 221.341 525.429 222.414C528.393 223.436 531.587 223.947 535.011 223.947ZM556.169 180.941L555.709 179.484C553.767 174.425 551.084 170.464 547.66 167.602C544.287 164.74 540.071 163.309 535.011 163.309C532.865 163.309 530.514 163.692 527.958 164.459C525.403 165.174 522.924 166.427 520.522 168.215C518.12 170.004 515.948 172.406 514.006 175.421C512.115 178.386 510.787 182.091 510.02 186.537L556.169 180.941Z" fill="white"/>
<path d="M846.913 223.947C849.621 223.947 852.304 223.538 854.962 222.721C857.619 221.852 860.073 220.625 862.321 219.041C864.57 217.406 866.512 215.387 868.147 212.985C869.834 210.583 871.061 207.798 871.827 204.629L886.623 207.619C885.192 212.269 883.173 216.486 880.566 220.268C877.96 224.049 874.919 227.295 871.444 230.003C867.969 232.712 864.136 234.807 859.945 236.29C855.805 237.772 851.461 238.513 846.913 238.513C840.167 238.513 834.187 237.491 828.974 235.446C823.761 233.402 819.366 230.514 815.789 226.784C812.211 223.053 809.477 218.556 807.586 213.292C805.746 208.028 804.826 202.15 804.826 195.66C804.826 189.271 805.899 183.317 808.046 177.798C810.243 172.227 813.233 167.398 817.015 163.309C820.797 159.221 825.243 156.001 830.354 153.65C835.465 151.299 840.984 150.124 846.913 150.124C852.228 150.124 857.236 151.171 861.938 153.267C866.64 155.311 870.805 158.173 874.434 161.853C878.062 165.481 881.052 169.774 883.403 174.731C885.754 179.689 887.236 185.055 887.849 190.83L821.461 200.719C821.819 204.348 822.714 207.619 824.145 210.532C825.576 213.394 827.39 215.821 829.587 217.814C831.836 219.808 834.417 221.341 837.33 222.414C840.294 223.436 843.488 223.947 846.913 223.947ZM868.071 180.941L867.611 179.484C865.669 174.425 862.986 170.464 859.562 167.602C856.188 164.74 851.972 163.309 846.913 163.309C844.766 163.309 842.415 163.692 839.86 164.459C837.305 165.174 834.826 166.427 832.424 168.215C830.022 170.004 827.85 172.406 825.908 175.421C824.017 178.386 822.688 182.091 821.921 186.537L868.071 180.941ZM939.978 223.947C942.687 223.947 945.37 223.538 948.027 222.721C950.685 221.852 953.138 220.625 955.387 219.041C957.635 217.406 959.577 215.387 961.213 212.985C962.899 210.583 964.126 207.798 964.893 204.629L979.688 207.619C978.257 212.269 976.238 216.486 973.632 220.268C971.025 224.049 967.985 227.295 964.509 230.003C961.034 232.712 957.201 234.807 953.01 236.29C948.871 237.772 944.527 238.513 939.978 238.513C933.232 238.513 927.252 237.491 922.04 235.446C916.827 233.402 912.431 230.514 908.854 226.784C905.277 223.053 902.542 218.556 900.651 213.292C898.812 208.028 897.892 202.15 897.892 195.66C897.892 189.271 898.965 183.317 901.111 177.798C903.309 172.227 906.299 167.398 910.081 163.309C913.862 159.221 918.309 156.001 923.419 153.65C928.53 151.299 934.05 150.124 939.978 150.124C945.293 150.124 950.302 151.171 955.003 153.267C959.705 155.311 963.87 158.173 967.499 161.853C971.128 165.481 974.117 169.774 976.468 174.731C978.819 179.689 980.301 185.055 980.915 190.83L914.527 200.719C914.885 204.348 915.779 207.619 917.21 210.532C918.641 213.394 920.455 215.821 922.653 217.814C924.902 219.808 927.482 221.341 930.396 222.414C933.36 223.436 936.554 223.947 939.978 223.947ZM961.136 180.941L960.676 179.484C958.734 174.425 956.051 170.464 952.627 167.602C949.254 164.74 945.038 163.309 939.978 163.309C937.832 163.309 935.481 163.692 932.925 164.459C930.37 165.174 927.891 166.427 925.489 168.215C923.087 170.004 920.915 172.406 918.973 175.421C917.082 178.386 915.753 182.091 914.987 186.537L961.136 180.941ZM1066.77 214.211C1066.77 219.067 1065.78 223.155 1063.78 226.477C1061.84 229.748 1059.21 232.405 1055.89 234.45C1052.62 236.545 1048.84 238.078 1044.54 239.049C1040.3 240.071 1035.88 240.685 1031.28 240.889C1026.58 240.838 1021.83 240.353 1017.02 239.433C1014.98 239.075 1012.81 238.564 1010.51 237.899C1008.26 237.286 1005.96 236.52 1003.61 235.6C1001.26 234.68 998.904 233.581 996.553 232.303C994.202 231.026 991.954 229.543 989.807 227.857L997.243 216.205C1000.05 217.687 1002.92 219.118 1005.83 220.498C1008.79 221.877 1011.81 223.104 1014.88 224.177C1017.94 225.199 1021.08 226.017 1024.3 226.63C1027.52 227.244 1030.85 227.55 1034.27 227.55C1037.08 227.55 1039.46 227.295 1041.4 226.784C1043.34 226.222 1044.93 225.557 1046.15 224.791C1047.43 223.973 1048.4 223.078 1049.07 222.107C1049.78 221.085 1050.29 220.114 1050.6 219.194C1050.85 218.377 1050.96 217.482 1050.91 216.511C1050.85 215.489 1050.57 214.467 1050.06 213.445C1049.6 212.423 1048.86 211.426 1047.84 210.455C1046.87 209.433 1045.56 208.539 1043.93 207.772C1042.29 206.954 1040.3 206.29 1037.95 205.779C1035.6 205.268 1032.81 204.936 1029.59 204.782C1024.99 204.578 1020.55 204.118 1016.25 203.402C1012.01 202.636 1008.21 201.46 1004.83 199.876C1001.51 198.292 998.751 196.222 996.553 193.667C994.407 191.06 993.104 187.815 992.644 183.931C992.286 180.251 992.516 176.903 993.333 173.888C994.202 170.822 995.48 168.088 997.167 165.686C998.904 163.284 1001.03 161.188 1003.53 159.399C1006.03 157.56 1008.77 156.052 1011.73 154.876C1014.7 153.65 1017.81 152.756 1021.08 152.193C1024.41 151.58 1027.75 151.273 1031.13 151.273C1033.12 151.273 1035.47 151.376 1038.18 151.58C1040.89 151.785 1043.72 152.193 1046.69 152.807C1049.65 153.42 1052.64 154.314 1055.66 155.49C1058.67 156.614 1061.48 158.122 1064.09 160.013L1058.8 174.042C1055.43 172.253 1052.21 170.873 1049.14 169.902C1046.13 168.88 1043.44 168.088 1041.09 167.525C1038.33 166.912 1035.75 166.503 1033.35 166.299C1025.33 165.839 1019.07 166.682 1014.57 168.829C1010.12 170.975 1007.9 174.22 1007.9 178.564C1007.9 181.631 1008.74 183.88 1010.43 185.311C1012.12 186.69 1014.42 187.687 1017.33 188.3C1020.24 188.914 1023.64 189.322 1027.52 189.527C1031.41 189.731 1035.55 190.166 1039.94 190.83C1044.95 191.597 1049.17 192.747 1052.59 194.28C1056.02 195.813 1058.78 197.602 1060.87 199.646C1062.97 201.69 1064.47 203.965 1065.39 206.469C1066.31 208.922 1066.77 211.503 1066.77 214.211Z" fill="#EDA73E"/>
<defs>
<clipPath id="clip0_2_20">
<rect width="268" height="327" fill="white" transform="translate(580)"/>
</clipPath>
</defs>
</svg>
